<svg width="127" height="127" viewBox="0 0 127 127" fill="none" xmlns="http://www.w3.org/2000/svg">
    <g clip-path="url(#clip0_101_231)">
        <g filter="url(#filter0_i_101_231)">
            <path d="M127 63.5C127 28.4299 98.5701 0 63.5 0C28.4299 0 0 28.4299 0 63.5C0 98.5701 28.4299 127 63.5 127C98.5701 127 127 98.5701 127 63.5Z" fill="#DCDDE0"/>
            <mask id="mask0_101_231" style="mask-type:alpha" maskUnits="userSpaceOnUse" x="0" y="0" width="127" height="127">
                <path d="M127 63.5C127 28.4299 98.5701 0 63.5 0C28.4299 0 0 28.4299 0 63.5C0 98.5701 28.4299 127 63.5 127C98.5701 127 127 98.5701 127 63.5Z" fill="#DCDDE0"/>
            </mask>
            <g mask="url(#mask0_101_231)">
                <path d="M77.3988 40.5299C85.074 48.2055 85.074 60.6502 77.3988 68.3258C69.7232 76.0014 57.2785 76.0014 49.6029 68.3258C41.9273 60.6502 41.9273 48.2055 49.6029 40.5299C57.2785 32.8541 69.7232 32.8541 77.3988 40.5299Z" fill="#F2F3F5"/>
                <path d="M93.649 88.248C75.7316 76.141 51.2688 76.141 33.3511 88.248C30.6927 90.042 29.1045 93.075 29.1045 96.362V139.85H97.896V96.362C97.896 93.075 96.308 90.042 93.649 88.248Z" fill="#F2F3F5"/>
            </g>
        </g>
    </g>
    <defs>
        <filter id="filter0_i_101_231" x="0" y="0" width="127" height="127" filterUnits="userSpaceOnUse" color-interpolation-filters="sRGB">
            <feFlood flood-opacity="0" result="BackgroundImageFix"/>
            <feBlend mode="normal" in="SourceGraphic" in2="BackgroundImageFix" result="shape"/>
            <feColorMatrix in="SourceAlpha" type="matrix" values="0 0 0 0 0 0 0 0 0 0 0 0 0 0 0 0 0 0 127 0" result="hardAlpha"/>
            <feOffset/>
            <feGaussianBlur stdDeviation="8.83478"/>
            <feComposite in2="hardAlpha" operator="arithmetic" k2="-1" k3="1"/>
            <feColorMatrix type="matrix" values="0 0 0 0 0.486275 0 0 0 0 0.501961 0 0 0 0 0.556863 0 0 0 0.08 0"/>
            <feBlend mode="normal" in2="shape" result="effect1_innerShadow_101_231"/>
        </filter>
        <clipPath id="clip0_101_231">
            <rect width="127" height="127" fill="white"/>
        </clipPath>
    </defs>
</svg>
