<svg width="24" height="24" viewBox="0 0 24 24" fill="none" xmlns="http://www.w3.org/2000/svg">
<g clip-path="url(#clip0_1_1454)">
<path d="M17.4375 22.4997C17.3531 22.4997 17.2687 22.4828 17.1894 22.449C16.9937 22.3655 12.375 20.354 12.375 16.2171V12.8269C12.375 12.5561 12.5471 12.3156 12.8045 12.2279L17.2342 10.7209C17.3658 10.6762 17.5092 10.6762 17.6408 10.7209L22.0705 12.2279C22.3279 12.3156 22.5 12.5561 22.5 12.8269V16.2171C22.5 20.354 17.8813 22.3655 17.6856 22.4499C17.6063 22.4828 17.5219 22.4997 17.4375 22.4997ZM13.6406 13.28V16.2163C13.6406 19.0285 16.5566 20.7193 17.4375 21.1648C18.3184 20.7193 21.2344 19.0285 21.2344 16.2163V13.28L17.4375 11.9882L13.6406 13.28Z"  fill="currentColor"/>
<path d="M17.2263 18.7028C17.0593 18.7028 16.8973 18.6369 16.7792 18.5171L15.0917 16.8296C14.8444 16.5824 14.8444 16.1816 15.0917 15.9344C15.3389 15.6872 15.7397 15.6872 15.9869 15.9344L17.1588 17.1064L19.2513 14.3153C19.4589 14.036 19.8572 13.9786 20.1373 14.1895C20.4166 14.3988 20.4731 14.7954 20.263 15.0755L17.7318 18.4505C17.6221 18.5973 17.4542 18.6884 17.2702 18.7019C17.2559 18.7019 17.2415 18.7028 17.2263 18.7028Z"  fill="currentColor"/>
<path d="M11.1853 19.9688H4.57031C3.29034 19.9688 2.25 18.9284 2.25 17.6484V4.57031C2.25 3.29034 3.29034 2.25 4.57031 2.25H14.2734C15.5534 2.25 16.5938 3.29034 16.5938 4.57031V9.15188C16.5938 9.50119 16.3103 9.78469 15.9609 9.78469C15.6116 9.78469 15.3281 9.50119 15.3281 9.15188V4.57031C15.3281 3.98897 14.8548 3.51562 14.2734 3.51562H4.57031C3.98897 3.51562 3.51563 3.98897 3.51563 4.57031V17.6484C3.51563 18.2298 3.98897 18.7031 4.57031 18.7031H11.1853C11.5346 18.7031 11.8181 18.9866 11.8181 19.3359C11.8181 19.6852 11.5346 19.9688 11.1853 19.9688Z"  fill="currentColor"/>
<path d="M13.4297 10.2657H5.41406C5.06475 10.2657 4.78125 9.98225 4.78125 9.63293C4.78125 9.28362 5.06475 9.00012 5.41406 9.00012H13.4297C13.779 9.00012 14.0625 9.28362 14.0625 9.63293C14.0625 9.98225 13.779 10.2657 13.4297 10.2657Z"  fill="currentColor"/>
<path d="M10.0547 13.6406H5.41406C5.06475 13.6406 4.78125 13.3571 4.78125 13.0078C4.78125 12.6585 5.06475 12.375 5.41406 12.375H10.0547C10.404 12.375 10.6875 12.6585 10.6875 13.0078C10.6875 13.3571 10.404 13.6406 10.0547 13.6406Z"  fill="currentColor"/>
<path d="M9.21094 6.8905H5.41406C5.06475 6.8905 4.78125 6.607 4.78125 6.25769C4.78125 5.90838 5.06475 5.62488 5.41406 5.62488H9.21094C9.56025 5.62488 9.84375 5.90838 9.84375 6.25769C9.84375 6.607 9.56025 6.8905 9.21094 6.8905Z"  fill="currentColor"/>
</g>
<defs>
<clipPath id="clip0_1_1454">
<rect width="20.25" height="20.25" fill="white" transform="translate(2.25 2.25)"/>
</clipPath>
</defs>
</svg>
