<svg width="24" height="24" viewBox="0 0 24 24" fill="none" xmlns="http://www.w3.org/2000/svg">
<path d="M14 2H6C5.46957 2 4.96086 2.21071 4.58579 2.58579C4.21071 2.96086 4 3.46957 4 4V20C4 20.5304 4.21071 21.0391 4.58579 21.4142C4.96086 21.7893 5.46957 22 6 22H18C18.5304 22 19.0391 21.7893 19.4142 21.4142C19.7893 21.0391 20 20.5304 20 20V8L14 2Z"  stroke="currentColor" stroke-width="1.3" stroke-linecap="round" stroke-linejoin="round"/>
<path d="M14 2V8H20"  stroke="currentColor" stroke-width="1.3" stroke-linecap="round" stroke-linejoin="round"/>
<circle cx="18.5" cy="18.5" r="4.85" fill="white" stroke="#55BF9C" stroke-width="1.3"/>
<path d="M18.5 15.2891V21.7057" stroke="#55BF9C" stroke-width="0.583333" stroke-linecap="round" stroke-linejoin="round"/>
<path d="M19.9583 16.4609H17.7708C17.5001 16.4609 17.2404 16.5685 17.049 16.7599C16.8576 16.9514 16.75 17.211 16.75 17.4818C16.75 17.7525 16.8576 18.0122 17.049 18.2036C17.2404 18.3951 17.5001 18.5026 17.7708 18.5026H19.2292C19.4999 18.5026 19.7596 18.6102 19.951 18.8016C20.1424 18.993 20.25 19.2527 20.25 19.5234C20.25 19.7942 20.1424 20.0538 19.951 20.2453C19.7596 20.4367 19.4999 20.5443 19.2292 20.5443H16.75" stroke="#55BF9C" stroke-width="0.583333" stroke-linecap="round" stroke-linejoin="round"/>
<g clip-path="url(#clip0_1_1318)">
<path d="M9.33341 6L7.50008 7.83333L6.66675 7"  stroke="currentColor" stroke-linecap="round" stroke-linejoin="round"/>
</g>
<g clip-path="url(#clip1_1_1318)">
<path d="M9.33341 11L7.50008 12.8333L6.66675 12"  stroke="currentColor" stroke-linecap="round" stroke-linejoin="round"/>
</g>
<g clip-path="url(#clip2_1_1318)">
<path d="M9.33341 16L7.50008 17.8333L6.66675 17"  stroke="currentColor" stroke-linecap="round" stroke-linejoin="round"/>
</g>
<defs>
<clipPath id="clip0_1_1318">
<rect width="4" height="4" fill="white" transform="translate(6 5)"/>
</clipPath>
<clipPath id="clip1_1_1318">
<rect width="4" height="4" fill="white" transform="translate(6 10)"/>
</clipPath>
<clipPath id="clip2_1_1318">
<rect width="4" height="4" fill="white" transform="translate(6 15)"/>
</clipPath>
</defs>
</svg>
