<svg width="16" height="16" viewBox="0 0 16 16" fill="none" xmlns="http://www.w3.org/2000/svg">
<g clip-path="url(#clip0_1_1342)">
<path d="M14.592 11.28V13.28C14.5928 13.4657 14.5547 13.6495 14.4803 13.8196C14.406 13.9897 14.2969 14.1424 14.16 14.268C14.0232 14.3935 13.8617 14.489 13.6858 14.5485C13.5099 14.608 13.3236 14.6301 13.1387 14.6134C11.0872 14.3905 9.11666 13.6895 7.38533 12.5667C5.77455 11.5432 4.40889 10.1775 3.38533 8.56671C2.25865 6.82751 1.55749 4.84737 1.33866 2.78671C1.322 2.60236 1.34391 2.41655 1.403 2.24113C1.46208 2.0657 1.55704 1.9045 1.68184 1.76779C1.80664 1.63108 1.95853 1.52185 2.12786 1.44706C2.29718 1.37227 2.48022 1.33355 2.66533 1.33338H4.66533C4.98887 1.33019 5.30252 1.44476 5.54784 1.65573C5.79315 1.8667 5.95338 2.15968 5.99866 2.48004C6.08308 3.12009 6.23963 3.74853 6.46533 4.35338C6.55503 4.59199 6.57444 4.85132 6.52127 5.10063C6.4681 5.34994 6.34457 5.57879 6.16533 5.76004L5.31866 6.60671C6.2677 8.27574 7.64963 9.65767 9.31866 10.6067L10.1653 9.76004C10.3466 9.5808 10.5754 9.45728 10.8247 9.40411C11.0741 9.35094 11.3334 9.37035 11.572 9.46004C12.1768 9.68574 12.8053 9.8423 13.4453 9.92671C13.7692 9.9724 14.0649 10.1355 14.2764 10.385C14.4878 10.6346 14.6001 10.9531 14.592 11.28Z"  stroke="currentColor" stroke-width="1.33333" stroke-linecap="round" stroke-linejoin="round"/>
</g>
<defs>
<clipPath id="clip0_1_1342">
<rect width="16" height="16" fill="white"/>
</clipPath>
</defs>
</svg>
