<svg width="24" height="24" viewBox="0 0 24 24" fill="none" xmlns="http://www.w3.org/2000/svg">
<path d="M1 4V10H7"  stroke="currentColor" stroke-width="1.3" stroke-linecap="round" stroke-linejoin="round"/>
<path d="M3.51 14.9985C4.15839 16.8389 5.38734 18.4187 7.01166 19.4999C8.63598 20.5811 10.5677 21.1051 12.5157 20.993C14.4637 20.8808 16.3226 20.1387 17.8121 18.8782C19.3017 17.6178 20.3413 15.9075 20.7742 14.0048C21.2072 12.1022 21.0101 10.1104 20.2126 8.32958C19.4152 6.54873 18.0605 5.07528 16.3528 4.13125C14.6451 3.18722 12.6769 2.82375 10.7447 3.0956C8.81245 3.36745 7.02091 4.2599 5.64 5.63848L1 9.99848"  stroke="currentColor" stroke-width="1.3" stroke-linecap="round" stroke-linejoin="round"/>
<path d="M16.1666 15.625V14.7083C16.1666 14.2221 15.9734 13.7558 15.6296 13.412C15.2858 13.0682 14.8195 12.875 14.3333 12.875H10.6666C10.1804 12.875 9.71404 13.0682 9.37022 13.412C9.02641 13.7558 8.83325 14.2221 8.83325 14.7083V15.625"  stroke="currentColor" stroke-width="1.3" stroke-linecap="round" stroke-linejoin="round"/>
<path d="M12.5001 11.0417C13.5126 11.0417 14.3334 10.2209 14.3334 9.20833C14.3334 8.19581 13.5126 7.375 12.5001 7.375C11.4876 7.375 10.6667 8.19581 10.6667 9.20833C10.6667 10.2209 11.4876 11.0417 12.5001 11.0417Z"  stroke="currentColor" stroke-width="1.3" stroke-linecap="round" stroke-linejoin="round"/>
</svg>
