<svg width="24" height="24" viewBox="0 0 24 24" fill="none" xmlns="http://www.w3.org/2000/svg">
<g clip-path="url(#clip0_1_1453)">
<path fill-rule="evenodd" clip-rule="evenodd" d="M12 0C5.38317 0 0 5.38317 0 12C0 18.6168 5.38317 24 12 24C18.6168 24 24 18.6168 24 12C24 5.38317 18.6168 0 12 0ZM18.1787 20.6L18.2334 20.3959C18.3339 20.0208 18.1113 19.6353 17.7362 19.5348C17.361 19.4342 16.9755 19.6569 16.8751 20.032L16.4519 21.6115C15.3983 22.1014 14.2516 22.4234 13.046 22.5421L13.2003 22.3878C13.4749 22.1132 13.4749 21.668 13.2003 21.3934C12.9257 21.1188 12.4805 21.1188 12.2059 21.3934L11.0488 22.5505C9.84206 22.4426 8.69273 22.1322 7.63575 21.6525L7.84556 21.5963C8.22066 21.4958 8.44322 21.1102 8.34272 20.7351C8.24222 20.3601 7.85672 20.1373 7.48158 20.238L5.9055 20.6603C4.93894 19.978 4.09134 19.1383 3.39998 18.1787L3.60403 18.2334C3.66502 18.2498 3.72619 18.2575 3.78647 18.2575C4.09692 18.2575 4.38103 18.0503 4.46517 17.7362C4.56567 17.3611 4.34311 16.9755 3.96802 16.875L2.38852 16.4518C1.89858 15.3983 1.57664 14.2516 1.45791 13.046L1.61222 13.2003C1.74947 13.3376 1.92938 13.4062 2.10938 13.4062C2.28928 13.4062 2.46928 13.3376 2.60653 13.2003C2.88112 12.9257 2.88112 12.4805 2.60653 12.2059L1.44942 11.0488C1.55733 9.84206 1.86773 8.69273 2.3475 7.63575L2.4037 7.84556C2.48789 8.15972 2.77195 8.36691 3.08241 8.36691C3.14264 8.36691 3.20386 8.35908 3.26484 8.34277C3.63994 8.24227 3.8625 7.85672 3.762 7.48163L3.3397 5.9055C4.02192 4.93894 4.86164 4.09134 5.82122 3.39998L5.76656 3.60403C5.66606 3.97913 5.88863 4.36467 6.26372 4.46517C6.3247 4.48153 6.38588 4.48931 6.44616 4.48931C6.75661 4.48931 7.04072 4.28212 7.12486 3.96797L7.54805 2.38847C8.60156 1.89853 9.74827 1.57655 10.9539 1.45786L10.7996 1.61217C10.525 1.88677 10.525 2.33194 10.7996 2.60653C10.937 2.74388 11.1169 2.8125 11.2969 2.8125C11.4768 2.8125 11.6568 2.74388 11.794 2.60653L12.9511 1.44942C14.1579 1.55733 15.3072 1.86773 16.3642 2.3475L16.1544 2.4037C15.7793 2.5042 15.5567 2.88975 15.6572 3.26484C15.7414 3.579 16.0255 3.78619 16.3359 3.78619C16.3962 3.78619 16.4574 3.77836 16.5184 3.76205L18.0945 3.3397C19.0611 4.02192 19.9087 4.86169 20.6 5.82127L20.396 5.76656C20.0207 5.66592 19.6353 5.88863 19.5348 6.26372C19.4343 6.63881 19.6569 7.02436 20.032 7.12486L21.6115 7.54809C22.1015 8.60161 22.4234 9.74831 22.5421 10.954L22.3878 10.7996C22.1132 10.525 21.668 10.525 21.3934 10.7996C21.1188 11.0742 21.1188 11.5194 21.3934 11.794L22.5506 12.9511C22.4427 14.1578 22.1323 15.3072 21.6525 16.3642L21.5963 16.1543C21.4958 15.7793 21.1103 15.5565 20.7351 15.6571C20.36 15.7576 20.1375 16.1432 20.238 16.5183L20.6603 18.0944C19.978 19.0611 19.1383 19.9087 18.1787 20.6Z"  fill="currentColor"/>
<path fill-rule="evenodd" clip-rule="evenodd" d="M12 9.89062C10.8369 9.89062 9.89062 10.8369 9.89062 12C9.89062 13.1631 10.8369 14.1094 12 14.1094C13.1631 14.1094 14.1094 13.1631 14.1094 12C14.1094 10.8369 13.1631 9.89062 12 9.89062ZM12 12.7031C11.6123 12.7031 11.2969 12.3877 11.2969 12C11.2969 11.6123 11.6123 11.2969 12 11.2969C12.3877 11.2969 12.7031 11.6123 12.7031 12C12.7031 12.3877 12.3877 12.7031 12 12.7031Z"  fill="currentColor"/>
<path fill-rule="evenodd" clip-rule="evenodd" d="M12 4.21875C7.70939 4.21875 4.21875 7.70939 4.21875 12C4.21875 16.2906 7.70939 19.7812 12 19.7812C16.2906 19.7812 19.7812 16.2906 19.7812 12C19.7812 7.70939 16.2906 4.21875 12 4.21875ZM12 18.375C8.4848 18.375 5.625 15.5152 5.625 12C5.625 8.4848 8.4848 5.625 12 5.625C15.5152 5.625 18.375 8.4848 18.375 12C18.375 15.5152 15.5152 18.375 12 18.375Z"  fill="currentColor"/>
<path fill-rule="evenodd" clip-rule="evenodd" d="M12 8.48438C12.3873 8.48438 12.7031 8.16853 12.7031 7.78125C12.7031 7.39397 12.3873 7.07812 12 7.07812C11.6127 7.07812 11.2969 7.39397 11.2969 7.78125C11.2969 8.16853 11.6127 8.48438 12 8.48438Z"  fill="currentColor"/>
<path d="M16.2188 12.7031C16.6071 12.7031 16.9219 12.3883 16.9219 12C16.9219 11.6117 16.6071 11.2969 16.2188 11.2969C15.8304 11.2969 15.5156 11.6117 15.5156 12C15.5156 12.3883 15.8304 12.7031 16.2188 12.7031Z"  fill="currentColor"/>
<path d="M12 16.9219C12.3883 16.9219 12.7031 16.6071 12.7031 16.2188C12.7031 15.8304 12.3883 15.5156 12 15.5156C11.6117 15.5156 11.2969 15.8304 11.2969 16.2188C11.2969 16.6071 11.6117 16.9219 12 16.9219Z"  fill="currentColor"/>
<path d="M7.78125 12.7031C8.16958 12.7031 8.48438 12.3883 8.48438 12C8.48438 11.6117 8.16958 11.2969 7.78125 11.2969C7.39292 11.2969 7.07812 11.6117 7.07812 12C7.07812 12.3883 7.39292 12.7031 7.78125 12.7031Z"  fill="currentColor"/>
<path d="M15.4801 9.51421C15.7546 9.23962 15.7546 8.79443 15.4801 8.51985C15.2055 8.24526 14.7603 8.24526 14.4857 8.51985C14.2111 8.79443 14.2111 9.23962 14.4857 9.51421C14.7603 9.78879 15.2055 9.78879 15.4801 9.51421Z"  fill="currentColor"/>
<path d="M15.4801 15.4806C15.7546 15.206 15.7546 14.7608 15.4801 14.4862C15.2055 14.2116 14.7603 14.2116 14.4857 14.4862C14.2111 14.7608 14.2111 15.206 14.4857 15.4806C14.7603 15.7552 15.2055 15.7552 15.4801 15.4806Z"  fill="currentColor"/>
<path d="M9.514 15.4806C9.78858 15.206 9.78858 14.7608 9.514 14.4862C9.23941 14.2116 8.79423 14.2116 8.51964 14.4862C8.24506 14.7608 8.24506 15.206 8.51964 15.4806C8.79423 15.7552 9.23941 15.7552 9.514 15.4806Z"  fill="currentColor"/>
<path d="M9.514 9.51421C9.78858 9.23962 9.78858 8.79443 9.514 8.51985C9.23941 8.24526 8.79423 8.24526 8.51964 8.51985C8.24506 8.79443 8.24506 9.23962 8.51964 9.51421C8.79423 9.78879 9.23941 9.78879 9.514 9.51421Z"  fill="currentColor"/>
</g>
<defs>
<clipPath id="clip0_1_1453">
<rect width="24" height="24" fill="white"/>
</clipPath>
</defs>
</svg>
