<svg width="24" height="24" viewBox="0 0 24 24" fill="none" xmlns="http://www.w3.org/2000/svg">
<path d="M10.8748 15H4.99976C3.93889 15 2.92147 15.4214 2.17133 16.1716C1.42118 16.9217 0.999756 17.9391 0.999756 19V21"  stroke="currentColor" stroke-width="1.3" stroke-linecap="round" stroke-linejoin="round"/>
<path d="M8.5 11C10.7091 11 12.5 9.20914 12.5 7C12.5 4.79086 10.7091 3 8.5 3C6.29086 3 4.5 4.79086 4.5 7C4.5 9.20914 6.29086 11 8.5 11Z"  stroke="currentColor" stroke-width="1.3" stroke-linecap="round" stroke-linejoin="round"/>
<path d="M17.8125 22.3123C17.7281 22.3123 17.6437 22.2954 17.5644 22.2617C17.3687 22.1781 12.75 20.1666 12.75 16.0297V12.6395C12.75 12.3687 12.9221 12.1282 13.1795 12.0405L17.6092 10.5335C17.7408 10.4888 17.8842 10.4888 18.0158 10.5335L22.4455 12.0405C22.7029 12.1282 22.875 12.3687 22.875 12.6395V16.0297C22.875 20.1666 18.2563 22.1781 18.0606 22.2625C17.9813 22.2954 17.8969 22.3123 17.8125 22.3123ZM14.0156 13.0926V16.0289C14.0156 18.8411 16.9316 20.532 17.8125 20.9775C18.6934 20.532 21.6094 18.8411 21.6094 16.0289V13.0926L17.8125 11.8009L14.0156 13.0926Z" fill="currentColor"/>
<path d="M17.6013 18.5152C17.4343 18.5152 17.2723 18.4494 17.1542 18.3296L15.4667 16.6421C15.2194 16.3949 15.2194 15.9941 15.4667 15.7469C15.7139 15.4996 16.1147 15.4996 16.3619 15.7469L17.5338 16.9188L19.6263 14.1277C19.8339 13.8484 20.2322 13.791 20.5123 14.002C20.7916 14.2112 20.8481 14.6078 20.638 14.8879L18.1068 18.2629C17.9971 18.4097 17.8292 18.5009 17.6452 18.5144C17.6309 18.5144 17.6165 18.5152 17.6013 18.5152Z" fill="currentColor"/>
</svg>
