<svg width="46" height="42" viewBox="0 0 46 42" fill="none" xmlns="http://www.w3.org/2000/svg">
    <path d="M15.4606 38.0102C14.7751 37.7122 14.1113 37.3735 13.4722 36.9971C13.461 36.9904 13.4491 36.9841 13.4379 36.9777C13.4314 36.9738 13.4217 36.9675 13.4108 36.9604C12.7206 36.5504 12.0592 36.0972 11.4313 35.6028C11.4313 35.6028 11.4313 35.6028 11.4311 35.6028C11.306 35.5043 11.1826 35.4037 11.0599 35.3022C11.0259 35.2738 10.9924 35.2448 10.9586 35.2162C10.8702 35.1419 10.7824 35.0669 10.6955 34.9908C10.6547 34.9554 10.6144 34.9193 10.5743 34.8832C10.4946 34.8123 10.4156 34.7409 10.3369 34.6686C10.2954 34.6303 10.254 34.5915 10.2127 34.5528C10.1354 34.4803 10.059 34.4069 9.9828 34.3329C9.94368 34.2946 9.90416 34.2565 9.86524 34.218C9.78457 34.1381 9.70491 34.057 9.62565 33.9758C9.59342 33.9427 9.56079 33.9101 9.52877 33.8766C9.42478 33.7682 9.32222 33.6587 9.22087 33.5477C9.21479 33.541 9.20851 33.5347 9.20263 33.528C9.09317 33.408 8.98575 33.2862 8.87953 33.1636C8.85622 33.1364 8.83352 33.1088 8.81042 33.0817C8.73015 32.9876 8.65049 32.8932 8.57205 32.7973C8.5386 32.7565 8.50617 32.7154 8.47313 32.6747C8.40563 32.5907 8.33854 32.5064 8.27246 32.4215C8.2376 32.3763 8.20274 32.3305 8.16808 32.2851C8.10463 32.202 8.0422 32.1185 7.98038 32.0341C7.94633 31.9879 7.91227 31.9417 7.87863 31.8949C7.81579 31.8077 7.75397 31.7198 7.69276 31.6316C7.66256 31.588 7.63195 31.5446 7.60195 31.5006C7.53263 31.3987 7.46432 31.2957 7.39682 31.1923C7.37696 31.1617 7.35628 31.1315 7.33662 31.1009C7.24886 30.9647 7.16271 30.8273 7.07859 30.6889C7.06886 30.6724 7.05934 30.656 7.04961 30.6396C6.97704 30.519 6.90529 30.3976 6.83536 30.2752C6.81022 30.2314 6.7859 30.187 6.76117 30.1428C6.70746 30.0469 6.65415 29.9508 6.60206 29.854C6.57449 29.8021 6.54733 29.75 6.51976 29.6981C6.47193 29.6071 6.4247 29.5155 6.37828 29.4234C6.35112 29.3691 6.32396 29.3146 6.2972 29.2601C6.2516 29.1674 6.20721 29.0744 6.16322 28.9809C6.13809 28.9276 6.11275 28.8743 6.08843 28.8206C6.04201 28.7199 5.99722 28.6183 5.95283 28.5166C5.93256 28.4702 5.91168 28.4241 5.89181 28.3773C5.83202 28.2371 5.77344 28.0958 5.71689 27.9535C5.71405 27.9454 5.71061 27.9377 5.70736 27.9298C5.64757 27.7786 5.59 27.6261 5.53426 27.4731C5.51825 27.4291 5.50325 27.3847 5.48744 27.3407C5.44872 27.2321 5.41062 27.123 5.37393 27.0136C5.35488 26.957 5.33704 26.9003 5.31859 26.8435C5.28677 26.7446 5.25515 26.6457 5.22475 26.5462C5.2065 26.4858 5.18846 26.4252 5.17083 26.3646C5.14205 26.2667 5.11428 26.1688 5.08712 26.0703C5.07029 26.0092 5.05367 25.948 5.03746 25.8866C5.0105 25.7849 4.98476 25.6825 4.95962 25.5799C4.94564 25.5226 4.93104 25.4654 4.91766 25.4076C4.88949 25.2883 4.86314 25.1681 4.8376 25.0477C4.82868 25.0069 4.81915 24.9666 4.81084 24.9256C4.7774 24.7643 4.74618 24.6021 4.7172 24.4392C4.71092 24.4029 4.70544 24.3662 4.69896 24.3299C4.67727 24.2032 4.65639 24.0761 4.63713 23.9486C4.62842 23.8899 4.62072 23.8311 4.61241 23.7721C4.59741 23.6657 4.58302 23.5589 4.56984 23.4518C4.56214 23.3872 4.55484 23.3223 4.54775 23.2575C4.53619 23.1545 4.52545 23.0515 4.51572 22.9484C4.50944 22.8819 4.50376 22.8158 4.49809 22.7493C4.48937 22.6447 4.48187 22.5397 4.47498 22.4347C4.47072 22.3703 4.46626 22.306 4.46261 22.2413C4.45633 22.1272 4.45167 22.0127 4.44741 21.898C4.44559 21.8429 4.44275 21.7879 4.44133 21.7326C4.43667 21.5627 4.43363 21.3923 4.43363 21.2214C4.43363 21.0503 4.43667 20.8801 4.44133 20.7102C4.44275 20.6549 4.44559 20.5999 4.44741 20.5448C4.45167 20.4301 4.45633 20.3155 4.46261 20.2014C4.46626 20.1368 4.47072 20.0723 4.47498 20.0079C4.48187 19.9031 4.48937 19.7983 4.49809 19.6937C4.50356 19.6272 4.50944 19.5607 4.51592 19.4942C4.52545 19.3911 4.53619 19.2881 4.54775 19.1853C4.55484 19.1205 4.56214 19.0558 4.56984 18.9909C4.58302 18.8837 4.59741 18.7769 4.61241 18.6703C4.62072 18.6115 4.62842 18.5527 4.63713 18.4943C4.65619 18.3668 4.67727 18.24 4.69896 18.1133C4.70524 18.0768 4.71092 18.0399 4.7172 18.0036C4.74618 17.8406 4.7774 17.6783 4.81084 17.5167C4.81915 17.4764 4.82868 17.4365 4.83719 17.3961C4.86294 17.2753 4.88949 17.1549 4.91766 17.0351C4.93104 16.9774 4.94564 16.9202 4.95962 16.8628C4.98476 16.7601 5.0105 16.6577 5.03746 16.556C5.05367 16.4946 5.07029 16.4335 5.08712 16.3725C5.11428 16.2742 5.14184 16.1761 5.17063 16.0784C5.18846 16.0176 5.2065 15.957 5.22495 15.8964C5.25535 15.7971 5.28677 15.698 5.31859 15.5995C5.33684 15.5425 5.35488 15.4857 5.37393 15.4294C5.41062 15.3197 5.44893 15.2107 5.48744 15.102C5.50325 15.0579 5.51825 15.0137 5.53426 14.9697C5.59 14.8164 5.64757 14.664 5.70736 14.5128C5.7102 14.5057 5.71324 14.4986 5.71608 14.4915C5.77304 14.3484 5.83161 14.2063 5.89181 14.0651C5.91168 14.0188 5.93235 13.973 5.95242 13.927C5.99681 13.8249 6.04181 13.7231 6.08843 13.622C6.11275 13.5685 6.13809 13.5153 6.16322 13.462C6.20721 13.3684 6.2516 13.2752 6.2972 13.1825C6.32396 13.128 6.35112 13.0739 6.37828 13.0196C6.4247 12.9273 6.47213 12.8357 6.51997 12.7443C6.54733 12.6926 6.57429 12.6407 6.60206 12.589C6.65415 12.4919 6.70766 12.3957 6.76158 12.2996C6.7861 12.2556 6.81022 12.2114 6.83536 12.1676C6.90569 12.0446 6.97765 11.9224 7.05082 11.801C7.06015 11.7855 7.06907 11.7697 7.07859 11.7541C7.16271 11.6155 7.24886 11.4779 7.33682 11.3416C7.35608 11.3114 7.37615 11.2823 7.39561 11.2523C7.46351 11.1483 7.53202 11.0445 7.60195 10.9419C7.63195 10.8982 7.66235 10.855 7.69255 10.8114C7.75397 10.723 7.81599 10.6349 7.87883 10.5475C7.91227 10.5013 7.94613 10.4551 7.97998 10.4091C8.0422 10.3245 8.10484 10.2408 8.16828 10.1573C8.20274 10.1121 8.2374 10.0669 8.27226 10.0217C8.33854 9.93637 8.40604 9.85164 8.47394 9.76732C8.50637 9.72678 8.5386 9.68604 8.57164 9.64591C8.65049 9.54942 8.73076 9.45416 8.81163 9.3597C8.83433 9.33315 8.85643 9.30619 8.87933 9.27964C8.98554 9.1566 9.09317 9.03478 9.20263 8.91458C9.2081 8.9087 9.21358 8.90283 9.21905 8.89695C9.321 8.78526 9.42458 8.67479 9.52917 8.56574C9.56059 8.53311 9.59241 8.50088 9.62403 8.46845C9.70389 8.38636 9.78436 8.30467 9.86585 8.2242C9.90416 8.1861 9.94307 8.1486 9.98179 8.11069C10.0584 8.03651 10.1354 7.96253 10.2131 7.88956C10.2542 7.85104 10.2952 7.81273 10.3365 7.77463C10.4154 7.70206 10.4946 7.63031 10.5747 7.55896C10.6148 7.52329 10.6547 7.48741 10.6951 7.45214C10.7824 7.37573 10.8708 7.30032 10.9596 7.22553C10.993 7.19756 11.0261 7.16877 11.0595 7.141C12.4401 5.99456 13.9913 5.04717 15.669 4.3428C15.7221 4.29943 15.7758 4.25686 15.8275 4.21126C17.7614 2.50882 15.6935 0.468296 13.5456 0.811661C12.0395 1.05266 10.6079 2.01222 9.39904 2.89293C8.45793 3.57865 7.56952 4.33672 6.74415 5.15804C5.08914 6.80494 3.68974 8.70621 2.61221 10.7773C0.939375 13.9933 0.0673828 17.5972 0.0673828 21.2214C0.0673828 26.0378 1.62165 30.7859 4.48187 34.6621C5.44244 35.964 6.54206 37.1627 7.756 38.2321C8.37239 38.7752 9.01797 39.2845 9.6893 39.7578C11.0342 40.7054 12.8799 41.7649 14.5611 41.9382C16.016 42.088 17.789 41.155 16.9158 39.3986C16.6067 38.777 16.0665 38.356 15.4606 38.0102Z" fill="#007BFF"/>
    <path d="M22.7191 27.0358C19.5852 27.0358 17.0445 24.4952 17.0445 21.3612C17.0445 18.2271 19.5852 15.6865 22.7191 15.6865C25.8532 15.6865 28.3937 18.2271 28.3937 21.3612C28.3937 24.4952 25.8532 27.0358 22.7191 27.0358ZM42.8738 10.8853C41.2669 7.77678 38.9353 5.05601 36.113 2.98731C34.7227 1.96816 31.3573 -0.219321 29.7236 1.42615C29.5994 1.55122 29.5013 1.69756 29.4281 1.85648C29.2787 2.18139 29.2347 2.55901 29.2917 2.91454C29.4163 3.69289 29.8817 4.24888 30.4705 4.70028C32.1523 5.48836 33.7155 6.53224 35.1062 7.81144C36.385 8.98808 37.4888 10.3364 38.3876 11.8187C38.8392 12.564 39.2405 13.3478 39.5805 14.1485L39.6632 14.3413C40.015 15.1579 40.4529 16.1744 40.0651 17.2177C39.5636 18.5656 38.1085 18.9868 36.9691 18.8084C36.3005 18.7036 35.6824 18.4081 35.1818 17.9539C34.6013 17.4273 34.2703 16.6647 33.9784 15.9922C33.8385 15.6699 33.7064 15.3653 33.5584 15.1056C33.0227 14.1651 32.4085 13.3318 31.7329 12.6287C29.3867 10.187 26.1055 8.7866 22.7302 8.7866C15.8437 8.7866 10.2412 14.3893 10.2412 21.2758C10.2412 28.1622 15.8437 33.7649 22.7302 33.7649C24.5318 33.7649 26.3427 33.3666 27.9669 32.6132C29.4601 31.9206 30.8388 30.9085 31.9539 29.6869C32.5123 29.0749 33.0119 28.4056 33.4384 27.6972C33.607 27.4173 33.7491 27.1045 33.8999 26.7733C33.9567 26.6483 34.0139 26.523 34.0724 26.3989C34.2555 26.0118 34.4873 25.5634 34.8188 25.1716C35.7953 24.0181 37.3861 23.6107 38.6868 24.1813C39.3281 24.4626 39.8109 24.9633 40.0458 25.5908C40.4222 26.5964 39.9708 27.5715 39.6082 28.3547C39.5604 28.4583 39.5134 28.5601 39.4692 28.6594C38.0485 31.8685 35.7463 34.5929 32.8115 36.5379C32.4168 36.7994 32.0133 37.0437 31.6024 37.2725C31.2152 37.5034 30.7829 37.7695 30.531 37.9937C29.7463 38.6916 28.8839 39.6609 29.3077 40.7996C29.8665 42.3012 31.6928 41.9586 32.8832 41.4948C34.4501 40.8845 35.8446 39.8315 37.1218 38.7803C38.4713 37.6694 39.6923 36.4031 40.753 35.0137C42.9107 32.1875 44.3868 28.8603 45.0238 25.3618C45.2691 24.0144 45.3913 22.645 45.3913 21.2758C45.3913 17.6719 44.529 14.0877 42.8738 10.8853Z" fill="#007BFF"/>
</svg>
